<svg aria-hidden="true" style="position:absolute;width:0;height:0" width="24" height="24"
     xmlns="http://www.w3.org/2000/svg" overflow="hidden">
    <defs>
        <symbol id="finger" viewBox="0 0 58 98">
            <path fill-rule="evenodd" clip-rule="evenodd"
                  d="m15.7 35.976.011-15.848c0-1.83.686-3.543 1.94-4.822 1.393-1.406 3.386-2.21 5.487-2.21 1.64 0 3.215.511 4.436 1.42 1.48 1.105 2.401 2.774 2.594 4.68 0 .043.847 8.309 1.607 15.707a18.247 18.247 0 0 0 8.917-15.707c0-10.053-8.06-18.2-18.004-18.2-9.945 0-18.005 8.147-18.005 18.2-.01 7.539 4.534 14.017 11.017 16.78Zm.718 59.855c0 1.19.965 2.165 2.144 2.165H50.24c1.179 0 2.143-.976 2.143-2.165v-4.965H16.418v4.965Zm38.249-43.81C56.66 52.668 58 54.542 58 56.655l-.022 17.269c0 2.568-.686 5.08-1.982 7.28l-3.633 6.208H16.397C6.387 77.163 1.307 66.234.536 61.543 0 58.325 2.218 56.17 4.683 56.17c1.404 0 2.894.692 4.008 2.306.354.521.74 1.084 1.169 1.7 3.166 4.636 6.415 4.733 7.898 4.778l.053.001h.032c.044 0 .097 0 .14-.012h.021c.515-.074.89-.509.89-1.029l.021-43.798c-.01-2.459 2.133-3.78 4.212-3.78 1.833 0 3.612 1.028 3.837 3.196 0 .044 2.765 27.072 2.775 27.157v.013h.011c.761-.684 2.025-1.083 3.472-1.083a8.99 8.99 0 0 1 1.661.16c1.833.37 13.836 4.28 19.784 6.241Z"
                  fill="currentcolor"/>
        </symbol>
        <symbol id="diamond" viewBox="0 0 93 76">
            <path fill-rule="evenodd" clip-rule="evenodd"
                  d="M74.294.996 62.05 19.416 49.395.995h24.9Zm-14.188 22.63H32.943l13.58 51.4 13.583-51.4ZM33.85 20.608h25.347L46.523 2.16 33.85 20.608Zm-2.852-1.193L43.65.996H18.754l12.244 18.42Zm12.647 56.581-13.836-52.37H-.001l43.646 52.37ZM.043 20.608h28.114L15.91 2.186.043 20.608ZM77.117 2.221 64.892 20.608h28.065L77.117 2.221ZM63.239 23.626 49.4 75.991 93 23.626H63.239Z"
                  fill="currentcolor"/>
        </symbol>
        <symbol id="lamp" viewBox="0 0 60 97">
            <path fill-rule="evenodd" clip-rule="evenodd"
                  d="M48 75.997a2.998 2.998 0 0 1-3 2.999H15c-1.658 0-3-1.342-3-2.999 0-1.659 1.342-3 3-3h30c1.658 0 3 1.341 3 3Zm-3 6H15c-1.658 0-3 1.34-3 3 0 1.659 1.342 2.999 3 2.999h30c1.658 0 3-1.34 3-3 0-1.659-1.342-3-3-3ZM24 96.996h12c3.316 0 6-2.683 6-6H18c0 3.317 2.684 6 6 6Zm36-66c0 16.312-9.832 18.21-11.678 36 0 1.659-1.342 3-3 3H14.678c-1.659 0-3-1.341-3-3h-.006C9.832 49.206 0 47.308 0 30.996c0-16.57 13.43-30 30-30s30 13.43 30 30Zm-17.854-9c-34.875 8.25-18 30-18 30 0-12 8.813-14.813 9-14.437-6.187 6-9 26.437-9 26.437h6v-12c17.063.938 12-27.938 12-30Z"
                  fill="currentcolor"/>
        </symbol>
        <symbol id="devices" viewBox="0 0 99 77">
            <path fill-rule="evenodd" clip-rule="evenodd"
                  d="M81.362 6.361H19.188v11.176H13.71V.997h73.131V31.08h-5.48V6.36ZM38.797 76.996H0V19.974h38.797v57.022Zm-20.449-4.693c0 1.007.836 1.835 1.869 1.835s1.873-.828 1.87-1.835c0-1.009-.837-1.83-1.87-1.83-1.033 0-1.869.821-1.869 1.83Zm14.843-46.834H5.61v42.073h27.577l.002-42.073Zm8.106 17.403h28.814v5.366H41.297v-5.366Zm31.646 33.233V33.162H99v42.943H72.943Zm14.236-40.548a.622.622 0 0 0-.629-.616.622.622 0 0 0-.63.616c0 .338.282.62.63.62a.626.626 0 0 0 .629-.62Zm3.119 1.444h-7.496v.589h7.496V37ZM84.8 72.775c0 .813.676 1.475 1.504 1.475s1.504-.662 1.504-1.475c0-.814-.676-1.471-1.504-1.471-.832 0-1.504.662-1.504 1.471Zm-7.676-3.547c3.355.027 10.928.003 17.695-.035V39.699l-17.695.004V69.23ZM41.297 50.434H70.11v7.617H41.297v-2.94h19.314v-1.424H41.297v-3.253Z"
                  fill="currentcolor"/>
        </symbol>
        <symbol id="link" viewBox="0 0 43 42">
            <rect x="1" y="1" width="41" height="40" rx="20" stroke="currentcolor" fill="none"/>
            <path fill-rule="evenodd" clip-rule="evenodd" d="M26.9131 16.7282L25.0948 14.8913C24.2902 14.0809 22.983 14.0759 22.1768 14.8826L20.1592 16.8926C19.3516 17.6989 19.3482 19.0103 20.1505 19.8207L21.3035 18.689C21.1868 18.3284 21.3304 17.9153 21.6159 17.6295L22.8995 16.3519C23.3061 15.9462 23.9584 15.9491 24.3595 16.3543L25.4513 17.458C25.8528 17.8628 25.8511 18.5171 25.447 18.9232L24.1634 20.2024C23.8918 20.473 23.4461 20.6217 23.1002 20.5263L21.9709 21.6589C22.7745 22.4718 24.0803 22.4747 24.8889 21.6684L26.9039 19.6592C27.7141 18.8525 27.7167 17.5398 26.9131 16.7282ZM19.5261 24.0918C19.6219 24.4441 19.4686 24.8997 19.1909 25.1777L17.9923 26.3752C17.5807 26.7845 16.916 26.7833 16.5067 26.369L15.393 25.2475C14.9847 24.8349 14.9873 24.1633 15.3982 23.7547L16.598 22.5577C16.8903 22.2661 17.3104 22.1202 17.6771 22.2438L18.8335 21.0715C18.0149 20.2462 16.6825 20.2421 15.8606 21.0632L13.9152 23.0042C13.0923 23.8266 13.0884 25.1629 13.9065 25.9886L15.7582 27.8618C16.576 28.6846 17.9072 28.6912 18.7311 27.8701L20.6765 25.9287C21.4985 25.1054 21.5024 23.7717 20.6855 22.9443L19.5261 24.0918ZM19.2579 23.5631C18.9801 23.8419 18.5343 23.8411 18.2618 23.5581C17.9879 23.2743 17.9901 22.8204 18.2661 22.5399L21.5907 19.1611C21.8668 18.8823 22.3117 18.8831 22.5851 19.164C22.8605 19.4457 22.8588 19.9009 22.5817 20.183L19.2579 23.5631Z" fill="currentcolor"/>
        </symbol>
        <symbol id="square" viewBox="0 0 43 43">
            <path fill-rule="evenodd" clip-rule="evenodd" d="M21.5973 1.99795C32.8653 1.99795 41.9999 10.9523 41.9999 21.9979C41.9999 33.0432 32.8653 41.9979 21.5973 41.9979C10.3292 41.9979 1.19463 33.0432 1.19463 21.9979C1.19463 10.9523 10.3292 1.99795 21.5973 1.99795Z" fill="currentcolor"/>
            <rect x="15" y="17" width="12" height="11" fill="white"/>
        </symbol>

        <symbol id="plus" viewBox="0 0 14 18">
            <path fill-rule="evenodd" clip-rule="evenodd" d="M15.5 6.99735H9.99996V1.49787C9.99996 1.22194 9.77611 0.997242 9.49998 0.997242H6.4999C6.22387 0.997242 5.99991 1.22194 5.99991 1.49787V6.99735H0.499994C0.223838 6.99735 7.98702e-06 7.22206 7.98702e-06 7.4984V10.4976C7.98702e-06 10.7731 0.223838 10.9974 0.499994 10.9974H5.99991V16.4977C5.99991 16.7732 6.22387 16.998 6.4999 16.998H9.49998C9.77611 16.998 9.99996 16.7732 9.99996 16.4977V10.9974H15.5C15.776 10.9974 16 10.7731 16 10.4976V7.4984C16 7.22206 15.776 6.99735 15.5 6.99735Z" fill="currentcolor"/>
        </symbol>

        <symbol id="quotes" viewBox="0 0 44 31">
            <path fill-rule="evenodd" clip-rule="evenodd" d="M9.65845 11.9026C14.9691 11.9026 19.2741 16.1757 19.2741 21.4484C19.2741 26.7195 14.9691 30.993 9.65845 30.993C4.34797 30.993 0.0429109 26.7195 0.0429109 21.4484L0 20.0841C0 9.54111 8.61007 0.993652 19.2312 0.993652V6.44727C15.562 6.44727 12.1124 7.86613 9.51792 10.4424C9.0185 10.9377 8.56269 11.466 8.15163 12.0211C8.64259 11.9451 9.14578 11.9026 9.65845 11.9026ZM34.3844 11.9026C39.6949 11.9026 43.9999 16.1757 43.9999 21.4484C43.9999 26.7195 39.6949 30.993 34.3844 30.993C29.0738 30.993 24.7687 26.7195 24.7687 21.4484L24.7258 20.0841C24.7258 9.54111 33.336 0.993652 43.957 0.993652V6.44727C40.2879 6.44727 36.8383 7.86613 34.2438 10.4424C33.7443 10.9377 33.2886 11.466 32.8774 12.0211C33.3685 11.9451 33.8715 11.9026 34.3844 11.9026Z" fill="currentcolor"/>
        </symbol>

        <symbol id="left-arrow" viewBox="0 0 31 31">
            <rect width="31" height="31" fill="currentcolor"/>
            <path fill-rule="evenodd" clip-rule="evenodd"
                  d="M17.5076 21.5076L18.8126 20.1056L14.5246 15.4963L18.8126 10.8899L17.5076 9.4867L11.9146 15.4963L17.5076 21.5076Z"
                  fill="#FFFFFF"/>
        </symbol>
    </defs>
</svg>